<svg version="1.0" xmlns="http://www.w3.org/2000/svg" viewBox="0 0 477.000000 107.000000"
 preserveAspectRatio="xMidYMid meet">
<g transform="translate(0.000000,107.000000) scale(0.100000,-0.100000)" stroke="none">
<path d="M1070 535 c0 -350 3 -535 10 -535 7 0 10 185 10 535 0 350 -3 535
-10 535 -7 0 -10 -185 -10 -535z"/>
<path d="M365 1028 c-4 -11 -92 -366 -110 -445 -5 -21 -2 -23 34 -23 47 0 41
-14 92 220 17 80 34 149 37 154 3 5 9 0 13 -12 7 -18 16 -22 49 -22 22 0 40 3
40 6 0 3 -8 35 -17 70 l-17 64 -58 0 c-38 0 -60 -4 -63 -12z"/>
<path d="M2035 951 c-80 -21 -125 -71 -125 -141 0 -82 46 -122 181 -160 68
-18 109 -45 109 -71 0 -22 -42 -49 -75 -49 -41 0 -85 36 -85 70 0 20 -3 21
-72 14 -40 -3 -75 -8 -77 -10 -11 -10 25 -92 53 -120 58 -58 224 -71 315 -25
74 38 111 140 74 211 -25 48 -69 74 -168 101 -47 12 -93 28 -102 34 -21 15
-11 42 21 56 30 14 77 -6 91 -39 10 -22 13 -23 80 -17 39 4 72 9 73 10 2 2 -1
19 -7 38 -12 36 -40 66 -80 87 -29 15 -164 22 -206 11z"/>
<path d="M1412 703 c-51 -137 -92 -251 -92 -255 0 -5 35 -8 78 -8 l78 0 10 38
9 37 91 3 91 3 12 -41 12 -40 79 0 c44 0 80 4 80 9 0 8 -140 394 -171 474 -11
27 -13 27 -99 27 l-87 0 -91 -247z m207 21 c12 -39 21 -74 21 -78 0 -3 -22 -6
-50 -6 -27 0 -50 5 -50 10 0 26 45 159 51 152 4 -4 17 -39 28 -78z"/>
<path d="M2430 695 l0 -255 75 0 75 0 0 105 0 105 85 0 85 0 0 -105 0 -105 80
0 80 0 0 255 0 255 -80 0 -80 0 0 -90 0 -90 -85 0 -85 0 0 90 0 90 -75 0 -75
0 0 -255z"/>
<path d="M3020 695 l0 -255 75 0 75 0 0 255 0 255 -75 0 -75 0 0 -255z"/>
<path d="M3290 695 l0 -255 200 0 200 0 0 60 0 60 -125 0 -125 0 0 195 0 195
-75 0 -75 0 0 -255z"/>
<path d="M3760 695 l0 -255 215 0 215 0 0 60 0 60 -135 0 -135 0 0 50 0 50
120 0 120 0 0 60 0 60 -120 0 -120 0 0 25 0 25 130 0 130 0 0 60 0 60 -210 0
-210 0 0 -255z"/>
<path d="M4226 938 c4 -7 47 -73 96 -145 l88 -132 0 -111 0 -110 80 0 80 0 0
105 0 105 100 150 100 150 -88 0 -88 0 -39 -67 c-67 -117 -56 -116 -115 -19
l-51 86 -85 0 c-65 0 -83 -3 -78 -12z"/>
<path d="M204 870 c-28 -4 -67 -13 -87 -19 -136 -45 -161 -286 -35 -353 40
-21 58 -23 241 -26 l197 -4 0 24 c0 12 -4 28 -8 34 -4 7 -68 13 -164 17 -220
9 -248 23 -248 127 0 43 5 56 28 80 25 25 99 50 148 50 14 0 34 38 34 66 0 15
-22 16 -106 4z"/>
<path d="M417 874 c-3 -5 -7 -22 -8 -39 l-4 -30 91 -1 c182 -2 237 -23 251
-96 8 -42 10 -43 48 -43 l40 0 -2 47 c-2 68 -31 111 -96 138 -43 19 -75 24
-183 28 -72 2 -134 1 -137 -4z"/>
<path d="M474 792 c-7 -5 7 -81 42 -227 90 -370 81 -345 118 -345 62 0 63 -5
-13 290 -39 150 -71 273 -73 275 -9 7 -66 13 -74 7z"/>
<path d="M635 509 c7 -37 29 -59 56 -59 33 0 68 -39 74 -83 10 -65 -12 -116
-60 -141 -36 -19 -61 -21 -240 -24 -137 -3 -202 -8 -207 -15 -4 -7 -8 -25 -8
-40 l0 -29 228 4 c223 3 228 3 282 30 73 36 92 70 98 169 8 135 -44 200 -172
215 l-58 7 7 -34z"/>
<path d="M225 450 c-7 -11 -105 -409 -105 -425 0 -11 11 -15 40 -15 37 0 40 2
50 38 18 65 90 374 90 387 0 13 -68 26 -75 15z"/>
<path d="M0 312 c0 -66 34 -129 84 -155 40 -21 50 -17 60 25 4 20 1 32 -13 45
-24 23 -41 65 -41 104 0 28 -2 29 -45 29 l-45 0 0 -48z"/>
<path d="M1342 228 c-25 -25 -14 -57 29 -78 52 -27 51 -55 -4 -55 -23 0 -37
-5 -37 -12 0 -8 13 -13 31 -13 78 0 95 54 28 95 -46 30 -47 50 -1 50 19 0 32
5 32 12 0 17 -62 17 -78 1z"/>
<path d="M1810 160 c-18 -45 -29 -84 -26 -88 9 -8 26 18 26 41 0 13 9 17 40
17 37 0 41 -3 47 -30 3 -17 12 -30 20 -30 10 0 13 6 9 17 -39 105 -61 153 -71
153 -7 0 -27 -36 -45 -80z m58 23 c10 -31 10 -33 -14 -33 -27 0 -29 6 -14 46
12 31 13 30 28 -13z"/>
<path d="M2292 153 l2 -88 5 70 6 69 44 -67 c24 -37 47 -67 52 -67 5 0 9 38 9
85 0 50 -4 85 -10 85 -6 0 -10 -28 -10 -62 l0 -63 -41 63 c-23 34 -46 62 -50
62 -5 0 -8 -39 -7 -87z"/>
<path d="M2770 230 c0 -5 11 -10 25 -10 24 0 25 -2 25 -75 0 -43 4 -75 10 -75
6 0 10 32 10 75 0 73 1 75 25 75 14 0 25 5 25 10 0 6 -27 10 -60 10 -33 0 -60
-4 -60 -10z"/>
<path d="M3250 155 c0 -47 4 -85 8 -85 4 0 8 38 8 85 0 47 -4 85 -8 85 -4 0
-8 -38 -8 -85z"/>
<path d="M3655 164 c-17 -43 -31 -81 -33 -86 -2 -4 1 -8 8 -8 6 0 16 14 21 30
9 26 16 30 45 30 30 0 37 -4 45 -30 11 -30 30 -42 28 -17 -1 30 -56 152 -70
155 -9 2 -24 -22 -44 -74z m65 -1 c0 -7 -12 -13 -26 -13 -21 0 -25 3 -19 18 4
9 10 25 13 36 5 17 6 16 18 -5 7 -13 13 -30 14 -36z"/>
<path d="M4165 228 c-52 -30 -61 -93 -20 -134 20 -20 34 -25 63 -22 35 3 37 5
40 41 2 21 -1 37 -7 37 -6 0 -11 -13 -11 -30 0 -25 -4 -30 -25 -30 -31 0 -65
33 -65 63 0 12 7 33 16 46 13 18 24 22 50 19 23 -3 34 0 34 9 0 16 -48 17 -75
1z"/>
<path d="M4636 219 c-55 -44 -22 -149 48 -149 39 0 76 41 76 85 0 43 -36 85
-73 85 -13 0 -36 -9 -51 -21z m84 -19 c54 -54 -15 -145 -72 -93 -36 32 -12
113 34 113 10 0 27 -9 38 -20z"/>
<path d="M663 113 c-18 -2 -33 -6 -33 -9 0 -3 5 -25 11 -50 11 -44 12 -44 55
-44 35 0 44 3 44 18 0 34 -21 92 -33 90 -7 0 -27 -3 -44 -5z"/>
</g>
</svg>
