<svg version="1.0" xmlns="http://www.w3.org/2000/svg" viewBox="0 0 86.000000 104.000000"
 preserveAspectRatio="xMidYMid meet">
<g transform="translate(0.000000,104.000000) scale(0.100000,-0.100000)" stroke="none">
<path d="M365 1018 c-4 -11 -92 -366 -110 -445 -5 -21 -2 -23 34 -23 47 0 41
-14 92 220 17 80 34 149 37 154 3 5 9 0 13 -12 7 -18 16 -22 49 -22 22 0 40 3
40 6 0 3 -8 35 -17 70 l-17 64 -58 0 c-38 0 -60 -4 -63 -12z"/>
<path d="M204 860 c-28 -4 -67 -13 -87 -19 -136 -45 -161 -286 -35 -353 40
-21 58 -23 241 -26 l197 -4 0 24 c0 12 -4 28 -8 34 -4 7 -68 13 -164 17 -220
9 -248 23 -248 127 0 43 5 56 28 80 25 25 99 50 148 50 14 0 34 38 34 66 0 15
-22 16 -106 4z"/>
<path d="M417 864 c-3 -5 -7 -22 -8 -39 l-4 -30 91 -1 c182 -2 237 -23 251
-96 8 -42 10 -43 48 -43 l40 0 -2 47 c-2 68 -31 111 -96 138 -43 19 -75 24
-183 28 -72 2 -134 1 -137 -4z"/>
<path d="M474 782 c-7 -5 7 -81 42 -227 90 -370 81 -345 118 -345 62 0 63 -5
-13 290 -39 150 -71 273 -73 275 -9 7 -66 13 -74 7z"/>
<path d="M635 499 c7 -37 29 -59 56 -59 33 0 68 -39 74 -83 10 -65 -12 -116
-60 -141 -36 -19 -61 -21 -240 -24 -137 -3 -202 -8 -207 -15 -4 -7 -8 -25 -8
-40 l0 -29 228 4 c223 3 228 3 282 30 73 36 92 70 98 169 8 135 -44 200 -172
215 l-58 7 7 -34z"/>
<path d="M225 440 c-7 -11 -105 -409 -105 -425 0 -11 11 -15 40 -15 37 0 40 2
50 38 18 65 90 374 90 387 0 13 -68 26 -75 15z"/>
<path d="M0 302 c0 -66 34 -129 84 -155 40 -21 50 -17 60 25 4 20 1 32 -13 45
-24 23 -41 65 -41 104 0 28 -2 29 -45 29 l-45 0 0 -48z"/>
<path d="M663 103 c-18 -2 -33 -6 -33 -9 0 -3 5 -25 11 -50 11 -44 12 -44 55
-44 35 0 44 3 44 18 0 34 -21 92 -33 90 -7 0 -27 -3 -44 -5z"/>
</g>
</svg>
