<svg version="1.0" xmlns="http://www.w3.org/2000/svg"
    viewBox="0 0 537.000000 510.000000"
    preserveAspectRatio="xMidYMid meet">
<g transform="translate(0.000000,510.000000) scale(0.100000,-0.100000)"
stroke="none">
<path d="M3293 5072 c-17 -15 -37 -44 -44 -65 -24 -69 -46 -81 -167 -87 -101
-6 -222 -31 -249 -53 -7 -5 -13 -17 -13 -26 -1 -9 -17 -34 -36 -56 l-35 -40
-37 45 c-20 25 -62 71 -93 103 -50 51 -60 57 -97 57 -29 0 -49 -7 -71 -25 -24
-21 -31 -23 -38 -11 -4 8 -44 34 -88 57 -141 76 -202 63 -455 -95 -122 -77
-122 -77 -203 -82 -45 -2 -93 -7 -106 -10 -39 -9 -83 -47 -101 -89 -9 -22 -29
-55 -44 -73 -26 -30 -32 -32 -92 -32 -112 0 -164 -41 -164 -129 0 -36 -17 -83
-33 -93 -7 -5 -37 -15 -67 -24 -76 -23 -104 -45 -130 -106 -27 -63 -29 -115
-6 -150 l17 -26 -38 -7 c-21 -4 -44 -11 -50 -17 -15 -12 -17 -86 -4 -121 9
-23 7 -26 -24 -31 -65 -12 -107 -70 -75 -102 8 -8 7 -19 -1 -38 -11 -23 -10
-30 9 -56 12 -16 26 -47 31 -70 l9 -41 -30 6 c-16 4 -42 1 -59 -5 -31 -13 -46
-49 -70 -176 -10 -56 -9 -66 11 -110 54 -121 54 -115 4 -191 -34 -49 -44 -74
-41 -93 13 -66 27 -103 42 -113 14 -11 15 -16 0 -49 -30 -74 -19 -100 69 -160
6 -4 0 -15 -15 -26 -38 -32 -33 -99 17 -198 l39 -79 59 -5 c58 -5 58 -5 37
-24 -21 -19 -28 -60 -13 -83 4 -6 27 -19 51 -29 l44 -17 -7 -74 c-7 -92 9
-129 84 -190 57 -47 98 -55 137 -28 19 14 22 13 33 -15 17 -40 58 -74 143
-117 55 -27 77 -33 101 -28 47 10 74 8 154 -10 91 -21 122 -15 122 23 0 15 -6
34 -12 41 -14 13 -2 12 82 -10 60 -15 69 -12 92 36 12 25 28 45 35 45 10 0 11
-5 3 -19 -5 -11 -10 -31 -10 -46 0 -22 -9 -30 -67 -56 -144 -65 -263 -98 -394
-109 -68 -6 -200 -25 -294 -42 -259 -46 -704 -149 -728 -169 -18 -14 -20 -20
-10 -42 10 -21 27 -30 85 -47 40 -12 83 -24 96 -28 20 -6 16 -12 -46 -59 -96
-73 -222 -204 -293 -303 -148 -206 -218 -431 -241 -768 -13 -180 -10 -203 26
-210 33 -7 46 17 46 87 0 165 38 416 82 545 79 231 229 434 443 597 l94 71 33
-20 c51 -32 111 -99 171 -192 69 -108 227 -395 236 -429 5 -18 15 -27 33 -29
21 -3 42 16 129 114 l103 118 18 -42 c31 -71 38 -130 44 -362 3 -124 7 -239
10 -257 5 -34 28 -48 59 -37 17 7 17 24 12 268 -6 278 -14 333 -62 442 l-26
58 71 71 c39 39 95 86 124 104 85 51 438 213 446 204 4 -4 28 -63 54 -130 77
-199 137 -273 315 -390 47 -31 95 -64 106 -74 25 -22 175 -43 265 -37 74 6
113 23 161 70 45 45 199 252 199 267 0 7 9 26 20 41 11 15 28 46 38 69 l17 40
75 -45 c41 -25 94 -65 118 -89 23 -24 51 -46 61 -50 10 -3 83 13 162 35 187
53 318 79 432 87 l92 6 28 -67 c15 -36 27 -82 27 -100 0 -39 -35 -161 -56
-193 -31 -49 -80 -579 -60 -657 5 -21 12 -26 36 -26 37 0 37 1 44 200 7 218
30 372 77 511 46 137 49 189 14 274 -14 33 -25 61 -25 61 0 1 60 5 133 9 128
7 286 39 379 78 31 13 37 12 122 -31 219 -108 292 -178 336 -317 9 -28 15
-151 19 -400 l6 -360 24 -3 c49 -7 51 7 51 342 -1 348 -10 431 -59 530 -49
101 -147 184 -311 266 -36 18 -66 34 -68 35 -5 5 139 140 153 143 19 4 28 37
16 59 -7 15 -37 22 -147 37 -191 25 -692 102 -789 122 -44 9 -138 29 -208 46
l-129 30 31 19 c17 10 31 25 31 32 0 20 70 47 162 63 45 8 82 15 84 17 12 14
44 91 44 105 0 15 10 21 41 26 46 7 99 52 99 85 0 11 6 24 14 28 7 4 26 32 40
62 25 48 30 53 54 48 15 -3 55 -9 89 -12 57 -7 63 -5 86 17 14 14 29 47 36 79
7 30 21 70 31 89 56 107 75 242 46 335 -11 37 -10 42 15 75 34 45 49 110 42
186 -6 65 11 130 59 228 20 41 21 50 9 79 -7 17 -18 46 -23 62 -6 17 -24 61
-39 98 -23 56 -26 69 -14 74 8 3 15 12 15 20 0 8 9 26 20 40 27 35 26 47 -15
131 -30 63 -33 76 -23 103 17 48 4 144 -36 263 -37 113 -61 150 -101 160 -21
5 -22 9 -12 36 9 23 8 36 -6 64 -23 49 -60 72 -93 57 -44 -20 -61 -14 -68 23
-8 43 -71 101 -125 116 -35 9 -42 16 -51 48 -18 67 -67 121 -128 143 -27 9
-30 15 -36 72 -11 93 -36 141 -86 167 -39 20 -48 21 -105 10 -57 -11 -66 -10
-103 9 -22 11 -43 25 -46 30 -4 5 -31 15 -61 22 -48 11 -57 10 -73 -4 -10 -9
-34 -23 -54 -32 -34 -14 -38 -13 -50 3 -7 9 -39 41 -71 70 -71 63 -112 69
-164 24z m119 -95 c24 -24 51 -55 61 -70 23 -35 61 -35 142 -2 77 32 87 31
131 -7 33 -30 44 -33 98 -33 34 0 76 3 94 7 52 12 78 -21 87 -108 9 -87 16
-99 68 -125 61 -31 84 -56 102 -109 19 -57 61 -99 104 -105 45 -5 67 -28 75
-75 8 -51 48 -75 113 -67 50 5 60 -3 33 -28 -43 -39 -13 -98 57 -111 34 -6 53
-28 53 -59 0 -9 6 -31 14 -48 35 -76 48 -148 41 -224 -6 -67 -4 -80 21 -140
26 -60 26 -66 11 -75 -9 -5 -17 -15 -17 -23 0 -7 -8 -27 -17 -44 -17 -28 -17
-33 -2 -73 9 -24 24 -65 34 -93 10 -27 25 -68 35 -90 19 -44 21 -35 -36 -160
-13 -30 -18 -69 -20 -153 l-2 -113 -36 -46 c-41 -53 -41 -53 -21 -119 8 -27
15 -73 15 -102 0 -54 -29 -153 -53 -181 -8 -9 -19 -43 -26 -76 -6 -32 -15 -62
-19 -66 -4 -5 -42 -3 -85 3 -72 10 -80 10 -105 -9 -15 -11 -37 -37 -48 -57
-12 -21 -32 -43 -45 -50 -18 -9 -25 -22 -29 -56 l-5 -45 -64 3 c-36 1 -70 -3
-77 -9 -17 -14 -18 -71 -3 -86 24 -24 -7 -47 -88 -64 -159 -34 -191 -47 -198
-79 -4 -20 -15 -32 -37 -39 -18 -6 -39 -17 -47 -25 -14 -12 -37 -8 -161 26
-80 22 -153 47 -163 56 -24 21 -83 148 -90 192 l-6 35 14 -32 c21 -46 51 -63
111 -63 45 0 57 4 82 29 16 16 40 56 52 88 13 32 27 63 31 68 4 6 15 47 25 93
15 70 16 92 6 146 -18 94 -65 200 -91 204 -28 4 -27 -21 3 -89 59 -134 57
-224 -8 -373 -46 -107 -57 -118 -109 -114 -38 3 -44 7 -60 42 -14 29 -23 37
-38 33 -17 -5 -19 0 -19 53 0 49 7 70 44 141 87 164 146 435 146 665 l0 134
35 0 c44 0 51 16 39 79 -9 45 -10 46 -51 49 -43 3 -57 16 -92 88 -9 18 -62 73
-118 123 -100 91 -101 92 -112 153 -6 33 -12 62 -13 62 -2 1 -22 14 -45 29
-45 28 -46 33 -43 114 1 23 -4 52 -11 65 -11 23 -58 67 -71 68 -3 0 -20 14
-36 30 -33 32 -66 36 -176 22 -53 -8 -60 -15 -76 -79 -9 -36 -18 -46 -60 -69
-55 -30 -54 -28 -70 -139 -18 -127 -16 -123 -89 -158 -55 -28 -70 -40 -91 -80
l-25 -47 -58 0 c-61 0 -148 -25 -229 -66 -42 -21 -48 -28 -48 -56 0 -17 -5
-70 -12 -119 -10 -76 -9 -96 5 -148 11 -38 17 -98 17 -158 0 -177 19 -427 35
-473 8 -24 32 -67 53 -94 l37 -51 -3 -92 -3 -91 -33 -6 c-18 -4 -40 -4 -47 -1
-20 7 -80 101 -90 139 -4 17 -15 56 -24 86 -20 69 -13 145 20 219 30 65 31 81
5 81 -42 0 -99 -169 -86 -254 15 -99 45 -181 92 -251 39 -60 77 -80 129 -71
l35 7 -7 -33 c-9 -49 -37 -99 -75 -136 -37 -35 -62 -35 -73 -2 -3 10 -12 21
-21 24 -13 5 -13 9 1 30 21 32 13 57 -25 80 -77 45 -135 37 -160 -24 -19 -47
-78 -36 -137 26 -43 43 -67 43 -94 2 -19 -32 -20 -58 -4 -101 10 -24 -22 -12
-53 19 -13 13 -27 24 -32 24 -20 0 -40 -13 -40 -26 0 -8 -4 -14 -9 -14 -5 0
-16 -2 -23 -5 -10 -4 -22 11 -38 44 -12 28 -30 53 -38 56 -21 8 -52 -4 -52
-21 0 -31 -21 -11 -50 46 -25 50 -35 60 -56 60 -14 0 -37 -9 -51 -20 -35 -28
-47 -25 -74 15 -13 19 -29 35 -36 35 -18 0 -25 34 -13 64 10 27 4 108 -11 137
-5 9 -22 22 -38 29 -25 10 -29 15 -21 30 20 37 11 75 -26 118 -37 44 -63 52
-84 27 -19 -22 -23 -19 -47 34 -34 73 -33 86 7 113 51 35 52 67 1 108 -23 17
-41 38 -41 45 0 8 -8 18 -17 23 -15 9 -15 14 5 60 25 58 22 73 -26 117 l-35
32 21 36 c13 19 29 37 37 40 19 8 37 79 29 114 -4 15 -19 56 -34 90 l-28 61
15 79 c8 43 16 80 18 81 2 2 24 -10 49 -27 50 -35 68 -38 86 -16 21 25 -13
220 -45 255 -10 11 -12 28 -9 51 5 32 10 36 57 49 59 17 68 35 47 103 -15 52
-4 60 73 52 39 -4 63 -2 73 6 21 18 17 67 -8 87 -12 9 -37 31 -56 47 l-34 31
22 51 c21 49 24 52 80 67 31 9 73 27 91 39 36 24 68 90 68 144 1 60 5 63 96
63 l82 0 45 48 c24 26 57 68 72 94 15 26 36 50 47 53 11 4 57 7 102 8 l81 1
125 79 c144 91 254 147 291 147 37 0 122 -43 168 -84 22 -20 48 -36 59 -36 25
0 89 26 98 40 14 23 37 6 111 -82 64 -77 84 -95 115 -102 48 -11 72 3 131 78
53 69 88 81 223 81 78 0 106 4 128 18 15 9 38 23 51 31 13 8 33 36 46 63 25
54 38 73 51 73 5 0 28 -19 51 -43z m-479 -1109 c14 -13 37 -31 52 -42 25 -17
27 -22 21 -70 -5 -42 -2 -58 17 -91 12 -22 37 -49 54 -60 26 -16 33 -29 39
-65 7 -50 25 -83 65 -121 l27 -26 -52 5 c-53 4 -201 -22 -223 -41 -7 -5 -13
-20 -13 -33 0 -13 6 -24 13 -24 6 0 -1 -8 -18 -18 -16 -11 -36 -26 -43 -35
-12 -14 -17 -14 -47 -1 -39 16 -92 18 -148 5 -37 -9 -38 -8 -57 29 -19 38 -19
38 1 43 35 9 16 30 -62 69 -41 20 -67 37 -59 37 8 1 38 12 67 25 65 31 79 57
98 182 8 53 16 98 17 99 2 1 22 12 45 25 40 22 73 68 73 103 0 33 99 36 133 5z
m-614 -533 c-7 -7 -133 -35 -137 -30 -6 6 89 33 117 34 13 1 22 -1 20 -4z
m185 -21 c47 -6 49 -8 77 -68 40 -84 39 -147 -3 -261 -29 -82 -34 -89 -72
-106 -48 -22 -221 -26 -277 -8 -45 15 -87 55 -94 90 -4 15 -15 31 -25 34 -12
4 -22 19 -26 41 -3 19 -5 36 -3 37 2 2 22 14 44 29 36 22 65 63 78 108 3 10
29 21 72 29 57 12 74 20 104 52 24 25 43 37 56 34 11 -2 42 -7 69 -11z m732
-23 c90 -13 160 -46 177 -84 17 -38 31 -229 19 -272 -6 -24 -17 -33 -50 -43
-23 -8 -42 -18 -42 -23 0 -31 -178 -67 -194 -40 -3 4 -19 11 -36 15 -38 7
-128 90 -170 157 -26 39 -33 62 -37 123 -4 55 -2 80 7 91 32 38 155 82 235 84
17 0 57 -3 91 -8z m-1109 -48 c-4 -20 -13 -43 -21 -52 -14 -13 -15 -10 -10 25
8 54 12 64 25 64 8 0 10 -12 6 -37z m687 -47 c32 -13 33 -16 39 -81 4 -37 16
-88 28 -113 28 -58 130 -166 188 -200 40 -24 57 -27 131 -27 85 0 114 9 182
57 9 7 20 9 24 5 11 -10 -44 -288 -77 -392 -33 -103 -115 -238 -166 -270 -17
-11 -39 -33 -49 -49 -27 -46 -84 -106 -118 -124 -25 -13 -68 -17 -223 -20
-244 -5 -278 3 -360 86 -30 31 -66 73 -78 92 -13 19 -48 67 -79 105 -89 111
-95 129 -106 311 -5 88 -10 187 -10 220 l0 61 43 -21 c35 -17 64 -22 171 -25
118 -3 132 -1 173 20 54 28 67 45 94 129 12 36 26 71 32 78 5 6 9 45 8 86 -1
70 0 75 21 79 48 9 100 6 132 -7z m706 -51 c0 -8 -9 -15 -20 -15 -11 0 -20 7
-20 15 0 8 9 15 20 15 11 0 20 -7 20 -15z m-1089 -1197 c65 -41 139 -50 354
-46 235 5 255 12 362 126 l72 77 1 -35 c1 -60 19 -118 65 -213 l45 -92 -50
-233 c-59 -273 -88 -370 -130 -432 -16 -25 -30 -50 -30 -56 0 -17 -153 -217
-189 -247 -41 -34 -83 -41 -189 -33 -77 6 -95 12 -153 46 -111 65 -223 154
-261 206 -83 114 -149 298 -178 494 -11 80 -26 160 -32 179 -10 32 -8 35 40
85 71 71 93 126 99 246 l6 97 62 -71 c34 -39 81 -83 106 -98z m-399 -258 c22
-47 50 -242 39 -272 -7 -18 -42 -39 -137 -82 -198 -90 -320 -154 -384 -203
-33 -24 -125 -120 -205 -214 -80 -93 -150 -167 -154 -164 -5 2 -43 69 -86 147
-180 333 -270 434 -443 498 -42 16 -74 29 -71 30 3 0 83 18 177 40 236 55 524
106 672 119 146 13 204 27 360 92 91 37 126 47 165 46 47 -2 51 -4 67 -37z
m1620 -24 c389 -103 518 -128 1073 -211 131 -20 241 -38 243 -40 6 -6 -119
-105 -159 -126 -22 -11 -90 -33 -152 -49 -96 -26 -142 -31 -332 -40 -304 -15
-443 -38 -725 -123 l-45 -13 -40 40 c-22 23 -79 63 -125 90 -47 27 -86 50 -88
52 -2 1 10 62 26 136 17 73 40 181 52 241 13 59 24 107 26 107 2 0 113 -29
246 -64z"/>
</g>
</svg>
